<svg xmlns="http://www.w3.org/2000/svg" width="370" height="259.2" viewBox="0 0 370 259.2"><g fill="#231F20"><path fill-rule="evenodd" clip-rule="evenodd" d="M192.3 187h1v-4.4h1.6v-.9h-4.3v.9h1.6v4.4h.1zm3.9 0h1v-4l1.5 4.1h.8l1.5-4.1v4.1h1v-5.3h-1.5l-1.4 3.6-1.4-3.6h-1.5v5.2z"/><path d="M245.4 71.2c0-17.6-14.5-32-32.2-32-11.7 0-22.2 6.2-27.9 16.2-5.7-10-16.3-16.2-27.9-16.2-18.1 0-32.8 14.4-32.8 32v14.2l60.4 101.6 60.4-102v-13.8zm-111.7 0c0-12.9 10.6-23.5 23.6-23.5 13 0 23.6 10.5 23.6 23.5v1.8s0 2.7.1 4h-47.4c.1-1.4.1-5.8.1-5.8zm29.5 62.2s-23.3-39.1-28.1-47.2h35.1c-2.2 3.4-3.4 7.4-3.4 11.4 0 12 8.1 17.4 15.2 22.1 6.5 4.3 12.6 8.3 12.6 16.8 0 6.9-5.7 12.1-13.1 12.1-4.4 0-9-2-12.5-5.5-.2-.2-5.8-9.7-5.8-9.7zm21.8 36.6c-1.2-2-5.8-9.7-7.5-12.5 1.4.3 2.8.5 4.3.5 4.6 0 9.1-1.5 12.8-4.2-3.2 5.4-7.7 13.1-9.6 16.2zm19.2-32.6v-1.1c0-13-8.6-18.5-16.3-23.4-6.5-4.1-12.1-7.7-12.1-15.1 0-5.3 3.8-10.5 8.8-11.8.3 0 46.9.1 50.1.1-1.5 2.5-26.6 44.8-30.5 51.3zm32.6-60.4h-47.3v-5.7c0-12.9 10.6-23.5 23.6-23.5 13 0 23.6 10.5 23.6 23.5.1-.1.1 4.3.1 5.7zM130.9 209.1v-13h4.9c1 0 1.8.1 2.4.4.6.3 1.1.7 1.4 1.2.3.5.5 1.1.5 1.7 0 .6-.2 1.1-.5 1.6s-.8.9-1.4 1.2c.8.2 1.4.6 1.8 1.2.4.6.6 1.2.6 2 0 .6-.1 1.2-.4 1.7-.3.5-.6.9-1 1.2-.4.3-.9.5-1.4.6-.6.1-1.3.2-2.1.2h-4.8zm1.7-7.6h2.8c.8 0 1.3-.1 1.6-.2.4-.1.8-.3 1-.6.2-.3.3-.7.3-1.1 0-.4-.1-.8-.3-1.1-.2-.3-.5-.6-.9-.7-.4-.1-1-.2-2-.2h-2.6v3.9zm0 6.1h3.2c.6 0 .9 0 1.2-.1.4-.1.7-.2 1-.4.3-.2.5-.4.7-.7.2-.3.3-.7.3-1.1 0-.5-.1-.9-.4-1.3-.2-.4-.6-.6-1-.8-.4-.1-1.1-.2-1.9-.2h-3v4.6zM143.1 209.1v-13h5.8c1.2 0 2 .1 2.7.4.6.2 1.1.6 1.5 1.2s.5 1.2.5 2c0 .9-.3 1.7-.9 2.3-.6.6-1.5 1-2.8 1.2.5.2.8.4 1 .6.5.5 1 1 1.4 1.7l2.3 3.6h-2.2l-1.7-2.7c-.5-.8-.9-1.4-1.2-1.8-.3-.4-.6-.7-.9-.9-.3-.2-.5-.3-.8-.3-.2 0-.5-.1-1-.1h-2v5.8h-1.7zm1.8-7.3h3.7c.8 0 1.4-.1 1.9-.2.4-.2.8-.4 1-.8s.3-.7.3-1.2c0-.6-.2-1.1-.7-1.5-.4-.4-1.2-.6-2.1-.6h-4.1v4.3zM156.6 209.1v-13h1.7v13h-1.7zM164.6 209.1v-11.5h-4.3v-1.5h10.3v1.5h-4.3v11.5h-1.7zM172.8 209.1v-13h1.7v13h-1.7zM176.9 204.9l1.6-.1c.1.7.3 1.2.5 1.6.3.4.7.8 1.3 1 .6.3 1.3.4 2 .4s1.2-.1 1.7-.3c.5-.2.9-.5 1.1-.8.2-.3.4-.7.4-1.1 0-.4-.1-.8-.4-1.1-.2-.3-.6-.6-1.2-.8-.4-.1-1.1-.3-2.3-.6-1.2-.3-2-.6-2.5-.8-.6-.3-1.1-.7-1.4-1.2-.3-.5-.5-1-.5-1.6 0-.7.2-1.3.6-1.8.4-.6.9-1 1.6-1.3.7-.3 1.5-.4 2.4-.4 1 0 1.8.2 2.6.5.7.3 1.3.8 1.7 1.4.4.6.6 1.3.6 2.1l-1.7.1c-.1-.8-.4-1.4-.9-1.9-.5-.4-1.3-.6-2.3-.6-1 0-1.8.2-2.3.6s-.7.8-.7 1.4c0 .5.2.9.5 1.2.3.3 1.2.6 2.6.9 1.4.3 2.4.6 2.9.8.8.3 1.3.8 1.7 1.3.4.5.5 1.2.5 1.9s-.2 1.3-.6 2c-.4.6-1 1.1-1.7 1.4-.7.3-1.6.5-2.5.5-1.2 0-2.2-.2-3-.5-.8-.3-1.4-.9-1.9-1.6l-.4-2.6zM189.7 209.1v-13h1.7v5.4h6.8v-5.4h1.7v13h-1.7v-6.1h-6.8v6.1h-1.7zM130.4 221l1.6-.1c.1.7.3 1.2.5 1.6.3.4.7.8 1.3 1 .6.3 1.3.4 2 .4s1.2-.1 1.7-.3c.5-.2.9-.5 1.1-.8.2-.3.4-.7.4-1.1 0-.4-.1-.8-.4-1.1-.2-.3-.6-.6-1.2-.8-.4-.1-1.1-.3-2.3-.6-1.2-.3-2-.6-2.5-.8-.6-.3-1.1-.7-1.4-1.2-.3-.5-.5-1-.5-1.6 0-.7.2-1.3.6-1.8.4-.6.9-1 1.6-1.3.7-.3 1.5-.4 2.4-.4 1 0 1.8.2 2.6.5.7.3 1.3.8 1.7 1.4.4.6.6 1.3.6 2.1l-1.7.1c-.1-.8-.4-1.4-.9-1.9-.5-.4-1.3-.6-2.3-.6-1 0-1.8.2-2.3.6s-.7.8-.7 1.4c0 .5.2.9.5 1.2.3.3 1.2.6 2.6.9 1.4.3 2.4.6 2.9.8.8.3 1.3.8 1.7 1.3.4.5.5 1.2.5 1.9s-.2 1.3-.6 2-1 1.1-1.7 1.4c-.7.3-1.6.5-2.5.5-1.2 0-2.2-.2-3-.5-.8-.3-1.4-.9-1.9-1.6-.2-.9-.4-1.7-.4-2.6zM146.4 225.2v-11.5h-4.3v-1.5h10.3v1.5h-4.3v11.5h-1.7zM151.5 225.2l5-13h1.9l5.3 13h-2l-1.5-4h-5.5l-1.4 4h-1.8zm3.7-5.4h4.4l-1.4-3.6c-.4-1.1-.7-2-.9-2.7-.2.8-.4 1.7-.7 2.5l-1.4 3.8zM165 225.2v-13h1.8l6.9 10.2v-10.2h1.7v13h-1.8l-6.9-10.3v10.3h-1.7zM178.2 225.2v-13h4.5c1 0 1.8.1 2.3.2.7.2 1.4.5 1.9.9.7.6 1.2 1.3 1.5 2.2.3.9.5 1.9.5 3.1 0 1-.1 1.9-.3 2.6-.2.8-.5 1.4-.9 1.9s-.8.9-1.2 1.2c-.4.3-.9.5-1.6.7-.6.1-1.3.2-2.1.2h-4.6zm1.7-1.5h2.8c.9 0 1.5-.1 2-.2.5-.2.9-.4 1.2-.7.4-.4.7-1 1-1.7.2-.7.3-1.5.3-2.5 0-1.4-.2-2.4-.7-3.1-.4-.7-1-1.2-1.6-1.5-.5-.2-1.2-.3-2.2-.3h-2.7v10zM189.9 225.2l5-13h1.9l5.3 13h-2l-1.5-4h-5.5l-1.4 4h-1.8zm3.8-5.4h4.4l-1.4-3.6c-.4-1.1-.7-2-.9-2.7-.2.8-.4 1.7-.7 2.5l-1.4 3.8zM203.5 225.2v-13h5.8c1.2 0 2 .1 2.7.4.6.2 1.1.6 1.5 1.2s.5 1.2.5 2c0 .9-.3 1.7-.9 2.3-.6.6-1.5 1-2.8 1.2.5.2.8.4 1 .6.5.5 1 1 1.4 1.7l2.3 3.6h-2.2l-1.7-2.7c-.5-.8-.9-1.4-1.2-1.8-.3-.4-.6-.7-.9-.9-.3-.2-.5-.3-.8-.3-.2 0-.5-.1-1-.1h-2v5.8h-1.7zm1.8-7.3h3.7c.8 0 1.4-.1 1.9-.2.4-.2.8-.4 1-.8.2-.4.3-.7.3-1.2 0-.6-.2-1.1-.7-1.5-.4-.4-1.2-.6-2.1-.6h-4.1v4.3zM216.7 225.2v-13h4.5c1 0 1.8.1 2.3.2.7.2 1.4.5 1.9.9.7.6 1.2 1.3 1.5 2.2.3.9.5 1.9.5 3.1 0 1-.1 1.9-.3 2.6-.2.8-.5 1.4-.9 1.9s-.8.9-1.2 1.2c-.4.3-.9.5-1.6.7-.6.1-1.3.2-2.1.2h-4.6zm1.7-1.5h2.8c.9 0 1.5-.1 2-.2.5-.2.9-.4 1.2-.7.4-.4.7-1 1-1.7.2-.7.3-1.5.3-2.5 0-1.4-.2-2.4-.7-3.1-.4-.7-1-1.2-1.6-1.5-.5-.2-1.2-.3-2.2-.3h-2.7v10zM229.3 221l1.6-.1c.1.7.3 1.2.5 1.6.3.4.7.8 1.3 1 .6.3 1.3.4 2 .4s1.2-.1 1.7-.3c.5-.2.9-.5 1.1-.8.2-.3.4-.7.4-1.1 0-.4-.1-.8-.4-1.1-.2-.3-.6-.6-1.2-.8-.3-.1-1.1-.3-2.3-.6-1.2-.3-2-.6-2.5-.8-.6-.3-1.1-.7-1.4-1.2-.3-.5-.5-1-.5-1.6 0-.7.2-1.3.6-1.8.4-.6.9-1 1.6-1.3.7-.3 1.5-.4 2.4-.4 1 0 1.8.2 2.6.5.7.3 1.3.8 1.7 1.4.4.6.6 1.3.6 2.1l-1.7.1c-.1-.8-.4-1.4-.9-1.9-.5-.4-1.3-.6-2.3-.6-1 0-1.8.2-2.3.6s-.7.8-.7 1.4c0 .5.2.9.5 1.2.3.3 1.2.6 2.6.9 1.4.3 2.4.6 2.9.8.8.3 1.3.8 1.7 1.3.4.5.5 1.2.5 1.9s-.2 1.3-.6 2c-.4.6-1 1.1-1.7 1.4s-1.6.5-2.5.5c-1.2 0-2.2-.2-3-.5-.8-.3-1.4-.9-1.9-1.6-.2-.9-.4-1.7-.4-2.6z"/></g></svg>